inDegrees=no
num_controls=7
num_derivatives=13
num_iterations=173
num_multipliers=7
num_parameters=0
num_slacks=7
num_states=26
objective=5.413321
objective_accelerations=0.538073
objective_balance=0.009251
objective_effort=0.426120
objective_height=4.416338
objective_ligament=0.023539
solver_duration=1441.100335
status=Solve_Succeeded
success=true
DataType=double
version=3
OpenSimVersion=4.4-2022-07-23-0e9fedc
endheader
time	/jointset/ground_pelvis/pelvis_tilt/value	/jointset/ground_pelvis/pelvis_tx/value	/jointset/ground_pelvis/pelvis_ty/value	/jointset/hip_r/hip_flexion_r/value	/jointset/hip_r/hip_adduction_r/value	/jointset/hip_r/hip_rotation_r/value	/jointset/back/lumbar_extension/value	/jointset/patellofemoral_r/patellar_flexion_r/value	/jointset/knee_r/knee_flexion_r/value	/jointset/knee_r/knee_adduction_r/value	/jointset/knee_r/knee_rotation_r/value	/jointset/ankle_r/ankle_angle_r/value	/jointset/subtalar_r/subtalar_angle_r/value	/jointset/ground_pelvis/pelvis_tilt/speed	/jointset/ground_pelvis/pelvis_tx/speed	/jointset/ground_pelvis/pelvis_ty/speed	/jointset/hip_r/hip_flexion_r/speed	/jointset/hip_r/hip_adduction_r/speed	/jointset/hip_r/hip_rotation_r/speed	/jointset/back/lumbar_extension/speed	/jointset/patellofemoral_r/patellar_flexion_r/speed	/jointset/knee_r/knee_flexion_r/speed	/jointset/knee_r/knee_adduction_r/speed	/jointset/knee_r/knee_rotation_r/speed	/jointset/ankle_r/ankle_angle_r/speed	/jointset/subtalar_r/subtalar_angle_r/speed	/forceset/tau_hip_flexion_r	/forceset/tau_hip_adduction_r	/forceset/tau_hip_rotation_r	/forceset/tau_knee_flexion_r	/forceset/tau_ankle_angle_r	/forceset/tau_subtalar_angle_r	/forceset/tau_lumbar_extension	lambda_cid13_p0	lambda_cid14_p0	lambda_cid14_p1	lambda_cid14_p2	lambda_cid14_p3	lambda_cid14_p4	lambda_cid14_p5	/jointset/ground_pelvis/pelvis_tilt/accel	/jointset/ground_pelvis/pelvis_tx/accel	/jointset/ground_pelvis/pelvis_ty/accel	/jointset/hip_r/hip_flexion_r/accel	/jointset/hip_r/hip_adduction_r/accel	/jointset/hip_r/hip_rotation_r/accel	/jointset/back/lumbar_extension/accel	/jointset/patellofemoral_r/patellar_flexion_r/accel	/jointset/knee_r/knee_flexion_r/accel	/jointset/knee_r/knee_adduction_r/accel	/jointset/knee_r/knee_rotation_r/accel	/jointset/ankle_r/ankle_angle_r/accel	/jointset/subtalar_r/subtalar_angle_r/accel	gamma_cid13_p0	gamma_cid14_p0	gamma_cid14_p1	gamma_cid14_p2	gamma_cid14_p3	gamma_cid14_p4	gamma_cid14_p5
0.5	-0.1158497498905513	0.03121351773796519	0.8179319917600711	0.8375860487637743	-0.21844284362908	-0.1399741286083998	-0.6421351456221773	0.9183365011268023	0.9183365011268102	-0.05891576835861109	0.1745325981651845	0.2900258213334193	0.1439178529480227	-0.308582769070996	-0.1942659180459081	-0.4570981689682617	1.720473362586288	-0.02375978122754754	0.1683522923065885	-0.7391064236112406	1.836816021319013	1.836816021318962	-0.4267770217450335	3.297761072759833e-05	0.5276825589750409	0.1755317196707243	-0.1831373703783532	0.001527133288985314	0.01682622063063311	-0.2887842473158235	0.002590306515680927	0.004279063364748875	0.2316581089135825	-10.47872405990505	-41.47441180803904	-3.779053427391916	-0.8310585230510137	-3.967290491711025	-643.146918015955	67.77623588679369	0.2752428011804995	0.5537188264045707	-0.3799698880265591	-1.220663066308055	-0.2003353570423709	-0.6145522309315853	1.741770303364869	-1.294723603552084	-1.294723603552077	0.3805216219364548	0.006071132362301904	-0.491487616521768	-0.3232344014399879	-1.214493254325974e-07	-1.822061856110461e-07	-3.657898977046131e-08	-1.885608771530324e-06	9.890487595153092e-08	-2.261807519492204e-07	1.249813376745068e-07
0.51	-0.1189210995553834	0.02929866900800016	0.8133430331735503	0.8547271623806089	-0.2186913107331557	-0.1383184979409366	-0.6494384426138088	0.936637697440324	0.9366376974403329	-0.06316028823268402	0.1745329251994329	0.2952769196336306	0.145655047463851	-0.3056296191627128	-0.1886932128629917	-0.4605925474231015	1.707521396023431	-0.02592517909806361	0.1628226326199671	-0.7214673989143415	1.82318427854716	1.823184278547126	-0.4220559757743008	1.800692269675567e-05	0.5224541330294394	0.1718700130585929	-0.189279222597972	0.002981010737397781	0.01708182382504664	-0.2928611685383335	0.0008918730101898183	0.00454305484380852	0.2373997823808894	-9.520725878164839	-42.31184287053225	-3.977937827800924	-0.6087017436962543	-3.653763553302844	-647.6012028383526	67.73771983982068	0.3139588203650899	0.5606625509396701	-0.3190693714516714	-1.366688012903254	-0.2236880890247015	-0.5151170473446678	1.787804922958271	-1.433217903138426	-1.433217903135795	0.5285094389691962	-0.007974182053456012	-0.5509699615680107	-0.3934823294651836	-1.142853168830605e-07	-1.369190964191091e-07	2.642687572876204e-07	-1.501385894029785e-06	4.258820303503263e-08	-1.990187560905403e-07	3.006050100609605e-07
0.52	-0.1219611961741913	0.0274398705672052	0.8087221512930334	0.8717319114194882	-0.2189612410333296	-0.1367167527123051	-0.6565627820844503	0.9547954126683045	0.9547954126683056	-0.06735547497618444	0.1745325719576095	0.3004732436987883	0.1473544562058849	-0.3023321598659126	-0.1830558602118929	-0.4634828277674933	1.693200446995428	-0.02805242044731688	0.1575752045406557	-0.7033149194132082	1.808119804209849	1.808119804209832	-0.4169103956304681	-0.0001046842720391702	0.5167277119642908	0.167974564911842	-0.1954210748175922	0.004434888185802442	0.01733742701938716	-0.2969380897608511	-0.0008065604953033224	0.004807046322855293	0.2431414558481955	-8.578707179959959	-43.14965033723899	-4.172848028584962	-0.3915939877561049	-3.368279672886997	-652.0612890963681	67.7758626470301	0.3441046788838935	0.5666483200410627	-0.2591502659369528	-1.494459559337239	-0.192704052789846	-0.5581059094696548	1.844461264211704	-1.581269916643695	-1.581269916643704	0.465428456556469	-0.01547296897862417	-0.5910866404311821	-0.3699827083639203	-8.115495963983629e-08	1.443578810060913e-10	1.044375338064526e-06	-2.961290954212026e-07	-1.130481669150794e-07	-1.194106305171268e-07	7.613066483474739e-07
0.53	-0.1249668104845594	0.02563779373004865	0.8040754278246797	0.8885867952549332	-0.2192517082483308	-0.135170026736032	-0.663503138077961	0.9727949172815409	0.9727949172815428	-0.07150105062921913	0.1745322585953456	0.3056100962531118	0.1490147424350205	-0.2987465221118044	-0.1773443856027332	-0.4657564064665584	1.677551237734355	-0.03003799838822323	0.151836309470985	-0.6846883970149702	1.791550696084236	1.791550696084256	-0.4121130057177456	2.033848385805785e-05	0.5105756044996299	0.1640421940562352	-0.200932142619498	0.004448136540043468	0.01773907717070951	-0.3021233873883677	-0.001310989435089118	0.005537736876130768	0.2484402371008698	-7.686704209461096	-43.56424747753036	-4.048532147862553	-0.2738539508706613	-3.447849902306678	-656.6059767708298	68.67055431871297	0.3724294020512746	0.5756263145618413	-0.1956582756381084	-1.633903486625462	-0.2009008654530503	-0.571909284913224	1.881930068722062	-1.729281862885532	-1.729281862880016	0.500848870110623	0.02334765199495576	-0.6373965676337218	-0.4106693637651745	-6.011747889863575e-08	7.638914571429742e-08	1.441197076325559e-06	3.678529547102545e-07	-1.957392271892717e-07	-7.262164458148897e-08	1.002786032352419e-06
0.54	-0.127935241201713	0.02389327749562536	0.7994091292485858	0.9052784366223406	-0.2195619144828859	-0.133678715306287	-0.6702551923792712	0.9906218206930496	0.9906218206930456	-0.07559586146083459	0.1745325670114405	0.3106834029791579	0.1506345439376788	-0.2948954412226146	-0.1715437396652371	-0.4673978493154932	1.660551953387956	-0.03200022435761918	0.146492295233419	-0.6656545809730432	1.773599563864006	1.773599563864063	-0.4067574313458069	1.967140459658536e-05	0.5040185463089616	0.1598776196163857	-0.2064432104213947	0.004461384894313101	0.01814072732197061	-0.3073086850158933	-0.001815418374868653	0.006268427429455005	0.2537390183535497	-6.847944030688791	-43.97710094433864	-3.915209775988715	-0.1674872068614069	-3.557085289670677	-661.1536349050737	69.59490697294612	0.3971933059001851	0.5844825857083623	-0.1327230959108763	-1.764474576402526	-0.1880336584877878	-0.4791297430487299	1.925919992949522	-1.857674735566955	-1.857674735566955	0.5770653483997416	-0.04061093601034076	-0.6720767856326196	-0.4164234252124486	-5.245935088307861e-08	8.534519618003819e-08	1.413958988824346e-06	4.329778363138203e-07	-1.977248384603179e-07	-6.21431961174332e-08	1.00172164566286e-06
0.55	-0.1308638236910319	0.02220709007023716	0.7947295812761815	0.9217935243985974	-0.2198914811697837	-0.1322395195828291	-0.6768150072778029	1.008262384983564	1.008262384983573	-0.07963511004058416	0.174532512668988	0.3156891343902145	0.1522117580648812	-0.2907740860710447	-0.1656906416480676	-0.4684054457282856	1.642254165845057	-0.03390134523189443	0.1413573687400131	-0.6462552063006664	1.75428881063779	1.754288810637857	-0.4010570651632915	-2.197982682068638e-05	0.4970594238045569	0.1555373727533255	-0.2120704532501375	0.005248110042212461	0.01840231535718064	-0.3119788920517445	-0.003070410291550932	0.00662497923060564	0.2590202775232124	-6.062739825917006	-44.66924503393449	-4.018226153190038	0.005054364211962813	-3.321530981920192	-665.6658938908437	69.95493836259439	0.4266636155425837	0.5861492128164263	-0.06884428393997501	-1.894133020226071	-0.1892453575032943	-0.5291524578783332	1.954925069270438	-2.001438499898191	-2.001438499896675	0.5719889915666837	0.01547813194773183	-0.7181179245820081	-0.4467255262324421	-4.495223325036601e-08	9.213376730151296e-08	1.367710633254654e-06	4.722311610517196e-07	-1.970961058871939e-07	-5.32044175089028e-08	9.915426713735035e-07
0.5600000000000001	-0.1337497812296854	0.02057951878563969	0.7900431440656542	0.9381192938640265	-0.2202396778765474	-0.1308513687953771	-0.6831792326566333	1.025703109165068	1.025703109165084	-0.08361626161083391	0.1745323258839557	0.3206232169878789	0.1537447896815771	-0.2863704510891856	-0.1598205115070911	-0.4687756969401416	1.62268829122246	-0.03572622833041213	0.1362833080309364	-0.6265366770327422	1.7336315420616	1.733631542061677	-0.3951380294452089	-6.817112033060384e-06	0.4896887836306474	0.1510411175150816	-0.2176976960788725	0.006034835190133318	0.01866390339232567	-0.316649099087605	-0.004325402208228754	0.006981531031793673	0.2643015366928808	-5.330982418687513	-45.36100887362417	-4.114921686364246	0.1694454083585434	-3.110976769721198	-670.1892730648651	70.33555733879403	0.4536492719579985	0.5878890104698041	-0.005254055723559433	-2.01809199234209	-0.1727861033362902	-0.4669565861829281	1.98975091205898	-2.12697780556189	-2.126977805561857	0.6207992555131856	-0.02924814676935646	-0.7543803195335791	-0.447625100249185	-3.762632807706684e-08	9.632136320986861e-08	1.298649956002789e-06	4.804386175508201e-07	-1.93330160701066e-07	-4.611324272700276e-08	9.704261919643888e-07
0.5700000000000001	-0.1365904026462881	0.01901070613298278	0.7853561918859061	0.9542432365613756	-0.2206056803773699	-0.1295134052797721	-0.689344760496681	1.042930689321675	1.042930689321687	-0.0875370961122295	0.1745323199002964	0.3254816463719598	0.1552321990193059	-0.2817122263978447	-0.1539412233541804	-0.4685070498617836	1.601895555050696	-0.03745898566500904	0.1313346849124726	-0.6065304468962874	1.711671073239871	1.711671073239948	-0.3889861455315722	3.350812297495587e-06	0.4819383222900553	0.1464212698910016	-0.2230098412735251	0.006510053231292042	0.0189004468492957	-0.3216057784996215	-0.005282529742381915	0.007399822656934254	0.2693041864484583	-4.652237721794592	-45.94833166401563	-4.156572554773322	0.3137010121926417	-2.948777134424442	-674.6600869083363	70.87053647418209	0.4781621021720595	0.5880298282610378	0.05906904136482136	-2.140554312118526	-0.1710986385585565	-0.5050642427410578	2.011825676508491	-2.262587127044454	-2.262587127044482	0.6189513289504489	0.01594764707739263	-0.7942293256176564	-0.4718320272642879	-3.081956930722744e-08	1.001171744349235e-07	1.23327155614002e-06	4.891191045864189e-07	-1.895746384968289e-07	-3.918894079683162e-08	9.498645038701785e-07
0.58	-0.1393831912090887	0.01750070258396684	0.7806751551672912	0.9701531139205022	-0.220988526069547	-0.128224177808961	-0.6953090727129504	1.059932263648754	1.059932263648755	-0.09139509810055728	0.174532375272873	0.3302608010857752	0.1566728763940385	-0.2768038803285056	-0.1480586907788967	-0.4675926047134585	1.579875223577936	-0.03909486660109484	0.1265360990714925	-0.5862935522770422	1.688430376155499	1.688430376155575	-0.3825715268314758	5.454138352215142e-06	0.4738338495776382	0.1416947249158474	-0.228321986468171	0.006985271272460303	0.01913699030620529	-0.3265624579116456	-0.00623965727653349	0.007818114282092163	0.2743068362040416	-4.025860663089509	-46.53587696132585	-4.191674531653445	0.4493888908857134	-2.812671096221496	-679.1568854393071	71.42619539955045	0.5036735475576238	0.5885378949444199	0.1239055582698625	-2.263611052541142	-0.1534108236340578	-0.4369491306861794	2.035883808617093	-2.383023458090733	-2.383023458090776	0.6733462128051261	-0.03086106642456242	-0.8251825938985488	-0.468964570464011	-2.468890817910315e-08	1.034027544445168e-07	1.172688680318863e-06	4.984156313904805e-07	-1.858326904085426e-07	-3.24819616503075e-08	9.300253346977044e-07
